<svg
  xmlns="http://www.w3.org/2000/svg"
  xmlns:xlink="http://www.w3.org/1999/xlink"
  x="0px"
  y="0px"
  viewBox="0 0 155 152.9"
  style="enable-background: new 0 0 155 152.9"
  xml:space="preserve"
  class="injected-svg js-svg-injector"
  data-parent="#iconProAccount"
>
  <style type="text/css">
    .pro-account-0 {
      fill: #00dffc;
    }
    .pro-account-1 {
      fill: #2d1582;
    }
    .pro-account-2 {
      fill: none;
      stroke: #ffffff;
    }
  </style>
  <path
    class="pro-account-0 fill-info"
    d="M144.5,132.9H24.9c-5.7,0-10.3-4.7-10.3-10.3V47.3c0-5.7,4.7-10.3,10.3-10.3h119.6c5.7,0,10.3,4.7,10.3,10.3  v75.2C154.8,128.4,150.3,132.9,144.5,132.9z"
  ></path>
  <g>
    <path
      class="pro-account-1 fill-indigo"
      d="M130.1,115.9H10.5c-5.7,0-10.3-4.7-10.3-10.3V30.4C0.2,24.7,4.8,20,10.5,20h119.6c5.7,0,10.3,4.7,10.3,10.3   v75.2C140.5,111.4,136,115.9,130.1,115.9z"
    ></path>
    <line
      class="pro-account-2 fill-none stroke-white"
      opacity=".7"
      stroke-width="4"
      stroke-linecap="round"
      stroke-linejoin="round"
      stroke-miterlimit="10"
      x1="27.2"
      y1="87.2"
      x2="14"
      y2="87.2"
    ></line>
    <line
      class="pro-account-2 fill-none stroke-white"
      opacity=".7"
      stroke-width="4"
      stroke-linecap="round"
      stroke-linejoin="round"
      stroke-miterlimit="10"
      x1="40.9"
      y1="96.4"
      x2="14"
      y2="96.4"
    ></line>
    <rect
      x="101.2"
      y="84.9"
      class="pro-account-2 fill-none stroke-white"
      opacity=".7"
      stroke-width="4"
      stroke-linecap="round"
      stroke-linejoin="round"
      stroke-miterlimit="10"
      width="25.5"
      height="11.5"
    ></rect>
    <line
      class="pro-account-2 fill-none stroke-white"
      stroke-width="4"
      stroke-linecap="round"
      stroke-linejoin="round"
      stroke-miterlimit="10"
      x1="126.6"
      y1="41"
      x2="14"
      y2="41"
    ></line>
    <line
      class="pro-account-2 fill-none stroke-white"
      stroke-width="4"
      stroke-linecap="round"
      stroke-linejoin="round"
      stroke-miterlimit="10"
      x1="126.6"
      y1="61.4"
      x2="14"
      y2="61.4"
    ></line>
  </g>
</svg>
